ply
format ascii 1.0
comment Created by Blender 2.79 (sub 0) - www.blender.org, source file: ''
element vertex 121
property float x
property float y
property float z
property float nx
property float ny
property float nz
property float s
property float t
element face 80
property list uchar uint vertex_indices
end_header
0.000000 -0.447708 0.000000 0.000000 -1.000000 0.000000 0.000000 0.000000
-0.190420 -0.380845 -0.138347 -0.425306 -0.850642 -0.309000 1.000000 0.000000
0.072733 -0.380845 -0.223852 0.162450 -0.850642 -0.499985 1.000000 1.000000
-0.323965 -0.200224 -0.235371 -0.723594 -0.447188 -0.525712 0.000000 0.000000
-0.380842 -0.235376 0.000000 -0.850642 -0.525712 0.000000 1.000000 1.000000
0.072733 -0.380845 -0.223852 0.162450 -0.850642 -0.499985 1.000000 0.000000
0.235373 -0.380844 0.000000 0.525712 -0.850642 0.000000 1.000000 1.000000
0.235373 -0.380844 0.000000 0.525712 -0.850642 0.000000 1.000000 0.000000
0.072733 -0.380845 0.223852 0.162450 -0.850642 0.499985 1.000000 1.000000
0.072733 -0.380845 0.223852 0.162450 -0.850642 0.499985 1.000000 0.000000
-0.190420 -0.380845 0.138347 -0.425306 -0.850642 0.309000 1.000000 1.000000
-0.380842 -0.235376 0.000000 -0.850642 -0.525712 0.000000 1.000000 0.000000
-0.425796 0.000000 -0.138347 -0.951048 0.000000 -0.309000 1.000000 1.000000
0.123741 -0.200224 -0.380842 0.276376 -0.447218 -0.850642 0.000000 0.000000
-0.117688 -0.235377 -0.362201 -0.262856 -0.525712 -0.808985 1.000000 0.000000
0.000000 0.000000 -0.447708 0.000000 0.000000 -1.000000 1.000000 1.000000
0.400442 -0.200222 0.000000 0.894406 -0.447188 0.000000 0.000000 0.000000
0.308108 -0.235376 -0.223853 0.688162 -0.525712 -0.499985 1.000000 0.000000
0.425796 0.000000 -0.138347 0.951048 0.000000 -0.309000 1.000000 1.000000
0.123741 -0.200224 0.380842 0.276376 -0.447218 0.850642 0.000000 0.000000
0.308108 -0.235376 0.223853 0.688162 -0.525712 0.499985 1.000000 0.000000
0.263156 0.000000 0.362203 0.587756 0.000000 0.809015 1.000000 1.000000
-0.323965 -0.200224 0.235371 -0.723594 -0.447188 0.525712 0.000000 0.000000
-0.117688 -0.235377 0.362201 -0.262856 -0.525712 0.808985 1.000000 0.000000
-0.263156 0.000000 0.362203 -0.587756 0.000000 0.809015 1.000000 1.000000
-0.425796 0.000000 -0.138347 -0.951048 0.000000 -0.309000 1.000000 0.000000
-0.263156 0.000000 -0.362203 -0.587756 0.000000 -0.809015 1.000000 1.000000
0.000000 0.000000 -0.447708 0.000000 0.000000 -1.000000 1.000000 0.000000
0.263156 0.000000 -0.362203 0.587756 0.000000 -0.809015 1.000000 1.000000
0.425796 0.000000 -0.138347 0.951048 0.000000 -0.309000 1.000000 0.000000
0.425796 0.000000 0.138347 0.951048 0.000000 0.309000 1.000000 1.000000
0.263156 0.000000 0.362203 0.587756 0.000000 0.809015 1.000000 0.000000
0.000000 0.000000 0.447708 0.000000 0.000000 1.000000 1.000000 1.000000
-0.263156 0.000000 0.362203 -0.587756 0.000000 0.809015 1.000000 0.000000
-0.425796 0.000000 0.138347 -0.951048 0.000000 0.309000 1.000000 1.000000
-0.123741 0.200224 -0.380842 -0.276376 0.447218 -0.850642 0.000000 0.000000
-0.308108 0.235376 -0.223853 -0.688162 0.525712 -0.499985 1.000000 0.000000
-0.072733 0.380845 -0.223852 -0.162450 0.850642 -0.499985 1.000000 1.000000
0.323965 0.200224 -0.235371 0.723594 0.447188 -0.525712 0.000000 0.000000
0.117688 0.235377 -0.362201 0.262856 0.525712 -0.808985 1.000000 0.000000
0.190420 0.380845 -0.138347 0.425306 0.850642 -0.309000 1.000000 1.000000
0.323965 0.200224 0.235371 0.723594 0.447188 0.525712 0.000000 0.000000
0.380842 0.235376 0.000000 0.850642 0.525712 0.000000 1.000000 0.000000
0.190420 0.380845 0.138347 0.425306 0.850642 0.309000 1.000000 1.000000
-0.123741 0.200224 0.380842 -0.276376 0.447218 0.850642 0.000000 0.000000
0.117688 0.235377 0.362201 0.262856 0.525712 0.808985 1.000000 0.000000
-0.072733 0.380845 0.223852 -0.162450 0.850642 0.499985 1.000000 1.000000
-0.400442 0.200222 0.000000 -0.894406 0.447188 0.000000 0.000000 0.000000
-0.308108 0.235376 0.223853 -0.688162 0.525712 0.499985 1.000000 0.000000
-0.235373 0.380844 0.000000 -0.525712 0.850642 0.000000 1.000000 1.000000
-0.235373 0.380844 0.000000 -0.525712 0.850642 0.000000 0.000000 0.000000
-0.072733 0.380845 0.223852 -0.162450 0.850642 0.499985 1.000000 0.000000
0.000000 0.447708 0.000000 0.000000 1.000000 0.000000 1.000000 1.000000
-0.308108 0.235376 0.223853 -0.688162 0.525712 0.499985 0.000000 0.000000
-0.123741 0.200224 0.380842 -0.276376 0.447218 0.850642 1.000000 0.000000
-0.072733 0.380845 0.223852 -0.162450 0.850642 0.499985 0.000000 0.000000
0.190420 0.380845 0.138347 0.425306 0.850642 0.309000 1.000000 0.000000
0.117688 0.235377 0.362201 0.262856 0.525712 0.808985 0.000000 0.000000
0.323965 0.200224 0.235371 0.723594 0.447188 0.525712 1.000000 0.000000
0.190420 0.380845 0.138347 0.425306 0.850642 0.309000 0.000000 0.000000
0.190420 0.380845 -0.138347 0.425306 0.850642 -0.309000 1.000000 0.000000
0.380842 0.235376 0.000000 0.850642 0.525712 0.000000 0.000000 0.000000
0.323965 0.200224 -0.235371 0.723594 0.447188 -0.525712 1.000000 0.000000
0.190420 0.380845 -0.138347 0.425306 0.850642 -0.309000 0.000000 0.000000
-0.072733 0.380845 -0.223852 -0.162450 0.850642 -0.499985 1.000000 0.000000
0.117688 0.235377 -0.362201 0.262856 0.525712 -0.808985 0.000000 0.000000
-0.123741 0.200224 -0.380842 -0.276376 0.447218 -0.850642 1.000000 0.000000
-0.072733 0.380845 -0.223852 -0.162450 0.850642 -0.499985 0.000000 0.000000
-0.235373 0.380844 0.000000 -0.525712 0.850642 0.000000 1.000000 0.000000
-0.308108 0.235376 -0.223853 -0.688162 0.525712 -0.499985 0.000000 0.000000
-0.400442 0.200222 0.000000 -0.894406 0.447188 0.000000 1.000000 0.000000
-0.425796 0.000000 0.138347 -0.951048 0.000000 0.309000 0.000000 0.000000
-0.400442 0.200222 0.000000 -0.894406 0.447188 0.000000 1.000000 1.000000
-0.308108 0.235376 0.223853 -0.688162 0.525712 0.499985 1.000000 1.000000
-0.263156 0.000000 0.362203 -0.587756 0.000000 0.809015 0.000000 0.000000
0.000000 0.000000 0.447708 0.000000 0.000000 1.000000 0.000000 0.000000
-0.123741 0.200224 0.380842 -0.276376 0.447218 0.850642 1.000000 1.000000
0.117688 0.235377 0.362201 0.262856 0.525712 0.808985 1.000000 1.000000
0.263156 0.000000 0.362203 0.587756 0.000000 0.809015 0.000000 0.000000
0.425796 0.000000 0.138347 0.951048 0.000000 0.309000 0.000000 0.000000
0.323965 0.200224 0.235371 0.723594 0.447188 0.525712 1.000000 1.000000
0.380842 0.235376 0.000000 0.850642 0.525712 0.000000 1.000000 1.000000
0.425796 0.000000 -0.138347 0.951048 0.000000 -0.309000 0.000000 0.000000
0.263156 0.000000 -0.362203 0.587756 0.000000 -0.809015 0.000000 0.000000
0.323965 0.200224 -0.235371 0.723594 0.447188 -0.525712 1.000000 1.000000
0.117688 0.235377 -0.362201 0.262856 0.525712 -0.808985 1.000000 1.000000
0.000000 0.000000 -0.447708 0.000000 0.000000 -1.000000 0.000000 0.000000
-0.263156 0.000000 -0.362203 -0.587756 0.000000 -0.809015 0.000000 0.000000
-0.123741 0.200224 -0.380842 -0.276376 0.447218 -0.850642 1.000000 1.000000
-0.308108 0.235376 -0.223853 -0.688162 0.525712 -0.499985 1.000000 1.000000
-0.425796 0.000000 -0.138347 -0.951048 0.000000 -0.309000 0.000000 0.000000
0.000000 0.000000 0.447708 0.000000 0.000000 1.000000 1.000000 0.000000
-0.117688 -0.235377 0.362201 -0.262856 -0.525712 0.808985 0.000000 0.000000
0.123741 -0.200224 0.380842 0.276376 -0.447218 0.850642 1.000000 0.000000
0.425796 0.000000 0.138347 0.951048 0.000000 0.309000 1.000000 0.000000
0.308108 -0.235376 0.223853 0.688162 -0.525712 0.499985 0.000000 0.000000
0.400442 -0.200222 0.000000 0.894406 -0.447188 0.000000 1.000000 0.000000
0.263156 0.000000 -0.362203 0.587756 0.000000 -0.809015 1.000000 0.000000
0.308108 -0.235376 -0.223853 0.688162 -0.525712 -0.499985 0.000000 0.000000
0.123741 -0.200224 -0.380842 0.276376 -0.447218 -0.850642 1.000000 0.000000
-0.263156 0.000000 -0.362203 -0.587756 0.000000 -0.809015 1.000000 0.000000
-0.117688 -0.235377 -0.362201 -0.262856 -0.525712 -0.808985 0.000000 0.000000
-0.323965 -0.200224 -0.235371 -0.723594 -0.447188 -0.525712 1.000000 0.000000
-0.425796 0.000000 0.138347 -0.951048 0.000000 0.309000 1.000000 0.000000
-0.380842 -0.235376 0.000000 -0.850642 -0.525712 0.000000 0.000000 0.000000
-0.323965 -0.200224 0.235371 -0.723594 -0.447188 0.525712 1.000000 0.000000
-0.190420 -0.380845 0.138347 -0.425306 -0.850642 0.309000 0.000000 0.000000
-0.323965 -0.200224 0.235371 -0.723594 -0.447188 0.525712 1.000000 1.000000
-0.117688 -0.235377 0.362201 -0.262856 -0.525712 0.808985 1.000000 1.000000
0.072733 -0.380845 0.223852 0.162450 -0.850642 0.499985 0.000000 0.000000
0.123741 -0.200224 0.380842 0.276376 -0.447218 0.850642 1.000000 1.000000
0.308108 -0.235376 0.223853 0.688162 -0.525712 0.499985 1.000000 1.000000
0.235373 -0.380844 0.000000 0.525712 -0.850642 0.000000 0.000000 0.000000
0.400442 -0.200222 0.000000 0.894406 -0.447188 0.000000 1.000000 1.000000
0.308108 -0.235376 -0.223853 0.688162 -0.525712 -0.499985 1.000000 1.000000
0.072733 -0.380845 -0.223852 0.162450 -0.850642 -0.499985 0.000000 0.000000
-0.190420 -0.380845 0.138347 -0.425306 -0.850642 0.309000 1.000000 0.000000
-0.190420 -0.380845 -0.138347 -0.425306 -0.850642 -0.309000 0.000000 0.000000
0.000000 -0.447708 0.000000 0.000000 -1.000000 0.000000 1.000000 0.000000
0.123741 -0.200224 -0.380842 0.276376 -0.447218 -0.850642 1.000000 1.000000
-0.117688 -0.235377 -0.362201 -0.262856 -0.525712 -0.808985 1.000000 1.000000
3 0 1 2
3 3 1 4
3 0 5 6
3 0 7 8
3 0 9 10
3 3 11 12
3 13 14 15
3 16 17 18
3 19 20 21
3 22 23 24
3 3 25 26
3 13 27 28
3 16 29 30
3 19 31 32
3 22 33 34
3 35 36 37
3 38 39 40
3 41 42 43
3 44 45 46
3 47 48 49
3 50 51 52
3 50 48 46
3 53 54 46
3 55 56 52
3 55 45 43
3 57 58 43
3 59 60 52
3 59 42 40
3 61 62 40
3 63 64 52
3 63 39 37
3 65 66 37
3 67 68 52
3 67 36 49
3 69 70 49
3 71 48 72
3 71 33 73
3 74 54 73
3 75 45 76
3 75 31 77
3 78 58 77
3 79 42 80
3 79 29 81
3 82 62 81
3 83 39 84
3 83 27 85
3 86 66 85
3 87 36 88
3 87 25 89
3 90 70 89
3 74 91 76
3 74 23 32
3 92 93 32
3 78 94 80
3 78 20 30
3 95 96 30
3 82 97 84
3 82 17 28
3 98 99 28
3 86 100 88
3 86 14 26
3 101 102 26
3 90 103 72
3 90 11 34
3 104 105 34
3 106 23 107
3 106 9 108
3 109 93 108
3 109 20 110
3 109 7 111
3 112 96 111
3 112 17 113
3 112 5 114
3 115 99 114
3 104 116 107
3 104 1 10
3 117 118 10
3 115 14 119
3 115 1 120
3 117 102 120
