ply
format ascii 1.0
comment Created by Blender 2.79 (sub 0) - www.blender.org, source file: ''
element vertex 507
property float x
property float y
property float z
property float nx
property float ny
property float nz
element face 967
property list uchar uint vertex_indices
end_header
-0.890157 0.242188 0.040328 -0.686544 -0.011811 0.726981
-0.843967 0.093750 0.101865 -0.827387 -0.510392 0.234321
-0.860759 0.242188 0.164062 -0.913572 -0.002838 0.406659
-0.356943 0.093750 -0.771523 -0.235511 -0.510392 -0.827052
-0.433572 0.242188 -0.778474 0.257576 -0.011811 -0.966155
-0.312857 0.242188 -0.818500 -0.134220 -0.002838 -0.990936
-0.771269 0.054688 0.196074 -0.758171 -0.546251 0.355968
-0.795671 0.242188 0.271917 -0.856166 -0.004730 0.516648
-0.238586 0.054688 -0.759195 -0.095676 -0.546251 -0.832118
-0.186891 0.242188 -0.819819 -0.010437 -0.004730 -0.999908
-0.710264 -0.023438 0.006466 -0.474075 -0.871151 -0.127720
-0.367825 -0.023438 -0.607636 -0.357860 -0.871151 -0.336161
-0.881761 0.164062 0.009230 -0.523972 -0.656575 0.542497
-0.798967 0.031250 -0.042998 -0.618091 -0.751457 -0.230720
-0.456529 0.031250 -0.657099 -0.521165 -0.751457 -0.404523
-0.455615 0.164062 -0.754985 0.186102 -0.656575 -0.730918
-0.853554 0.132812 -0.073437 -0.236183 -0.966948 -0.095737
-0.747145 0.093750 -0.184056 -0.398511 -0.535356 -0.744682
-0.549291 0.093750 -0.538870 -0.842982 -0.535356 0.052370
-0.511115 0.132812 -0.687538 -0.205573 -0.966948 -0.150609
-0.642435 0.054688 -0.179338 -0.202429 -0.633198 -0.747032
-0.490240 0.054688 -0.452272 -0.741905 -0.633198 0.220405
-0.716706 0.242188 -0.238643 -0.297006 -0.004578 -0.954863
-0.579730 0.242188 -0.484283 -0.968413 -0.004578 0.249214
-0.535113 0.242188 -0.387843 -0.906827 -0.006989 0.421400
-0.813933 0.242188 -0.176573 0.198370 -0.013123 -0.980010
-0.829152 0.164062 -0.149280 0.039155 -0.686636 -0.725913
-0.578030 0.242188 -0.599621 -0.729453 -0.013123 0.683889
-0.747145 0.390625 -0.184056 -0.407361 0.522202 -0.749199
-0.549291 0.390625 -0.538870 -0.851497 0.522202 0.047243
-0.611210 0.242188 -0.251376 -0.118107 -0.006989 -0.992950
-0.490240 0.437500 -0.452272 -0.757744 0.625751 0.184942
-0.798967 0.453125 -0.042998 -0.630482 0.740196 -0.233558
-0.642435 0.437500 -0.179338 -0.240913 0.625751 -0.741844
-0.456529 0.453125 -0.657099 -0.530076 0.740196 -0.413587
-0.367825 0.515625 -0.607636 -0.397504 0.841578 -0.365612
-0.853554 0.359375 -0.073437 -0.214423 0.972564 -0.090060
-0.829152 0.328125 -0.149280 0.056642 0.682058 -0.729057
-0.511115 0.359375 -0.687538 -0.189337 0.972564 -0.135075
-0.881761 0.328125 0.009230 -0.516098 0.652089 0.555345
-0.455615 0.328125 -0.754985 0.201147 0.652089 -0.730949
-0.356943 0.390625 -0.771523 -0.242622 0.495590 -0.833949
-0.843967 0.390625 0.101865 -0.837001 0.495590 0.231910
-0.710264 0.515625 0.006466 -0.519974 0.841578 -0.145970
-0.238586 0.437500 -0.759195 -0.124149 0.537095 -0.834315
-0.771269 0.437500 0.196074 -0.775018 0.537095 0.332896
-0.907609 0.242188 0.039542 -0.700156 -0.012665 0.713828
-0.443414 0.242188 -0.792907 0.239265 -0.012665 -0.970855
-0.465457 0.335938 -0.769418 0.157170 0.655568 -0.738578
-0.899213 0.335938 0.008443 -0.545701 0.655568 0.521928
-0.531585 0.375000 -0.698953 -0.277200 0.938902 -0.203986
-0.874024 0.375000 -0.084851 -0.319224 0.938902 -0.128605
-0.562811 0.328125 -0.626914 -0.590442 0.682058 0.431410
-0.587086 0.335938 -0.631506 -0.709586 0.628529 0.318400
-0.845817 0.335938 -0.167518 -0.102084 0.628529 -0.771020
-0.606110 0.242188 -0.597389 -0.778863 -0.012940 0.627033
-0.845817 0.156250 -0.167518 -0.105380 -0.636616 -0.763909
-0.826793 0.242188 -0.201635 0.124027 -0.012940 -0.992187
-0.587086 0.156250 -0.631506 -0.705283 -0.636616 0.311838
-0.874024 0.117188 -0.084851 -0.315470 -0.940336 -0.127171
-0.531585 0.117188 -0.698953 -0.274026 -0.940336 -0.201544
-0.562811 0.164062 -0.626914 -0.596973 -0.686636 0.414869
-0.899213 0.156250 0.008443 -0.542833 -0.662465 0.516160
-0.465457 0.156250 -0.769418 0.153783 -0.662465 -0.733085
-0.894494 0.242188 -0.096266 -0.947935 -0.005310 -0.318339
-0.552056 0.242188 -0.710367 -0.769066 -0.005310 -0.639088
-0.632594 -0.929688 -0.164905 -0.627888 -0.758965 -0.172216
-0.504928 -0.984375 -0.281561 -0.220344 -0.967650 -0.122868
-0.571970 -0.968750 -0.113209 -0.211249 -0.975249 0.064882
-0.472789 -0.929688 -0.451485 -0.476547 -0.758965 -0.443648
-0.559515 -0.945312 -0.312000 -0.551592 -0.775323 -0.307566
-0.666837 -0.914062 -0.103494 -0.768548 -0.639149 -0.027558
-0.616969 -0.945312 0.031654 -0.397198 -0.834651 0.381512
-0.438545 -0.914062 -0.512895 -0.427412 -0.639149 -0.639332
-0.396946 -0.968750 -0.427083 -0.055818 -0.975249 -0.213813
-0.642817 -0.890625 0.061966 -0.633259 -0.257851 0.729698
-0.285159 -0.890625 -0.579429 0.287912 -0.257851 -0.922269
-0.297360 -0.945312 -0.541507 0.115757 -0.834651 -0.538438
-0.669324 -0.695312 0.029295 -0.656056 0.100314 0.747978
-0.709350 -0.820312 -0.091421 -0.969298 -0.226356 0.095676
-0.450619 -0.820312 -0.555408 -0.428083 -0.226356 -0.874905
-0.326885 -0.695312 -0.584807 0.291482 0.100314 -0.951292
-0.650299 -0.437500 -0.004822 -0.602130 0.249184 0.758476
-0.722211 -0.703125 -0.116482 -0.995300 -0.029725 0.092105
-0.478699 -0.703125 -0.553176 -0.444777 -0.029725 -0.895138
-0.345909 -0.437500 -0.550690 0.328776 0.249184 -0.910916
-0.590208 -0.187500 -0.096544 -0.704489 -0.330668 0.627949
-0.780857 -0.046875 0.020772 -0.834346 -0.546617 -0.071017
-0.770506 -0.101562 -0.286533 -0.868313 -0.263863 -0.419965
-0.392759 -0.046875 -0.675210 -0.498978 -0.546617 -0.672445
-0.392354 -0.187500 -0.451358 0.163884 -0.330668 -0.929380
-0.648750 -0.101562 -0.504881 -0.813654 -0.263863 -0.517960
-0.779006 -0.039062 0.290155 -0.458144 -0.784875 0.417158
-0.677061 -0.140625 0.123376 -0.162755 -0.937132 0.308634
-0.162616 -0.039062 -0.815228 0.114078 -0.784875 -0.609027
-0.245283 0.054688 -0.843435 -0.438734 -0.376049 -0.816126
-0.879251 0.203125 0.341596 -0.939543 -0.318796 0.124760
-0.846453 0.054688 0.234654 -0.924894 -0.376049 0.055727
-0.171544 0.203125 -0.927547 -0.387707 -0.318796 -0.864864
-0.937111 0.429688 0.461398 -0.672292 0.443403 0.592730
-0.792248 0.148438 0.506397 -0.329081 -0.400922 0.854946
-0.100038 0.429688 -1.039739 0.150853 0.443403 -0.883511
-0.211698 0.375000 -0.967828 -0.540391 -0.144810 -0.828822
-0.892111 0.484375 0.316535 -0.437452 0.829127 0.348094
-0.934624 0.375000 0.328609 -0.989135 -0.144810 -0.024079
-0.199624 0.484375 -0.925315 0.066195 0.829127 -0.555101
-0.299742 0.414062 -0.954308 -0.515366 -0.183264 -0.837123
-0.840162 0.601562 0.095042 -0.434767 0.784722 0.441725
-0.969400 0.414062 0.246601 -0.983032 -0.183264 0.001526
-0.360748 0.601562 -0.764700 0.147252 0.784722 -0.602039
-0.482908 0.546875 -0.770205 -0.680532 0.003845 -0.732688
-0.882293 0.640625 -0.134188 -0.950072 0.216590 -0.224525
-0.909055 0.546875 -0.005990 -0.981017 0.003845 -0.193823
-0.577903 0.640625 -0.680056 -0.690390 0.216590 -0.690207
-0.737962 0.718750 -0.232606 0.111454 0.768029 -0.630634
-0.797395 0.757812 -0.077901 -0.265542 0.956999 0.116703
-0.585767 0.718750 -0.505540 -0.477889 0.768029 0.426283
-0.644818 0.617188 -0.592138 -0.926847 0.166021 -0.336619
-0.685480 0.492188 -0.310681 0.272713 0.546770 -0.791589
-0.842672 0.617188 -0.237324 -0.773553 0.166021 -0.611560
-0.624602 0.492188 -0.419855 -0.530076 0.546770 0.648091
-0.687458 0.429688 -0.499630 -0.901212 -0.025239 -0.432569
-0.648218 0.429688 -0.361463 -0.233436 0.963591 -0.130161
-0.786385 0.429688 -0.322223 -0.841700 -0.025239 -0.539323
-0.716452 0.351562 -0.399512 -0.870388 -0.082736 -0.485336
-0.783621 0.468750 -0.150726 -0.962249 -0.126499 -0.240944
-0.755414 0.414062 -0.233392 -0.952574 -0.283608 -0.109989
-0.540109 0.468750 -0.587420 -0.710746 -0.126499 -0.691946
-0.808023 0.476562 -0.074883 -0.925657 -0.154149 -0.345500
-0.837016 0.437500 0.025236 -0.958220 0.037141 -0.283547
-0.488413 0.476562 -0.648044 -0.780480 -0.154149 -0.605853
-0.872960 0.375000 0.201983 -0.900174 -0.360759 -0.243873
-0.418480 0.437500 -0.725333 -0.744896 0.037141 -0.666128
-0.878338 0.296875 0.243710 -0.983306 -0.119175 -0.137455
-0.287009 0.375000 -0.848812 -0.680624 -0.360759 -0.637623
-0.870728 0.187500 0.230063 -0.985992 -0.165105 -0.022828
-0.254338 0.296875 -0.875319 -0.633778 -0.119175 -0.764244
-0.826515 0.062500 0.102652 -0.920713 -0.389508 -0.023469
-0.261948 0.187500 -0.861673 -0.537675 -0.165105 -0.826777
-0.796735 0.015625 -0.014918 -0.821467 -0.498917 -0.276070
-0.347101 0.062500 -0.757090 -0.503891 -0.389508 -0.770928
-0.747145 0.093750 -0.184056 -0.765343 -0.292001 -0.573534
-0.549291 0.093750 -0.538870 -0.890194 -0.292001 -0.349620
-0.431467 0.015625 -0.669959 -0.666646 -0.498917 -0.553728
-0.634571 0.046875 -0.353853 -0.871578 0.064272 -0.486007
-0.729566 0.304688 -0.263704 -0.874325 -0.178167 -0.451369
-0.607810 0.304688 -0.482051 -0.843562 -0.178167 -0.506546
-0.668688 0.210938 -0.372878 -0.851588 -0.221992 -0.474868
-0.726548 0.210938 -0.253076 -0.749779 -0.134953 -0.647755
-0.597182 0.210938 -0.485070 -0.945158 -0.134953 -0.297372
-0.734944 0.140625 -0.221978 -0.689596 -0.301187 -0.658528
-0.575139 0.140625 -0.508558 -0.922697 -0.301187 -0.240516
-0.637717 -0.882812 -0.284047 -0.778100 -0.378430 -0.501297
-0.576839 -0.882812 -0.393221 -0.835444 -0.378430 -0.398450
-0.677998 -0.835938 -0.243893 -0.883602 -0.318644 -0.343028
-0.563852 -0.835938 -0.448594 -0.756279 -0.318644 -0.571368
-0.694663 -0.718750 -0.262131 -0.928709 -0.120182 -0.350749
-0.723656 -0.445312 -0.162013 -0.985565 0.108158 0.130161
-0.698468 -0.687500 -0.255308 -0.946379 -0.045198 -0.319865
-0.584322 -0.687500 -0.460009 -0.769555 -0.045198 -0.636952
-0.518193 -0.445312 -0.530474 -0.407300 0.108158 -0.906857
-0.588126 -0.718750 -0.453185 -0.786523 -0.120182 -0.605701
-0.648218 -0.328125 -0.361463 -0.768090 -0.475936 -0.428297
-0.693090 -0.445312 -0.297035 -0.930784 0.006256 -0.365490
-0.690072 -0.289062 -0.286406 -0.900388 -0.429243 0.070711
-0.616993 -0.445312 -0.433501 -0.800165 0.006256 -0.599719
-0.655041 -0.445312 -0.365268 -0.873379 0.000000 -0.487014
-0.641395 -0.679688 -0.357658 -0.872860 -0.034059 -0.486740
-0.641395 -0.765625 -0.357658 -0.707083 -0.586963 -0.394269
-0.715919 -0.226562 -0.256094 -0.746361 -0.137761 0.651082
-0.727993 -0.273438 -0.298607 -0.654073 -0.692862 0.303446
-0.636676 -0.273438 -0.462368 -0.085635 -0.692862 -0.715934
-0.594163 -0.226562 -0.474442 0.161565 -0.137761 -0.977172
-0.606364 -0.289062 -0.436520 -0.413099 -0.429243 -0.803156
-0.735603 -0.132812 -0.284961 -0.410291 0.775658 0.479537
-0.697681 -0.148438 -0.272760 -0.944395 -0.325327 0.047456
-0.629067 -0.132812 -0.476014 0.192297 0.775658 -0.601093
-0.631299 -0.226562 -0.504094 0.199530 -0.243049 -0.949248
-0.701359 -0.125000 -0.346371 -0.060640 0.949034 -0.309214
-0.648218 -0.140625 -0.361463 -0.649831 0.508408 -0.564959
-0.663310 -0.125000 -0.414604 -0.294931 0.949034 0.110935
-0.598755 -0.148438 -0.450167 -0.455977 -0.325327 -0.828364
-0.695982 -0.187500 -0.388097 -0.384472 0.812799 -0.437635
-0.655041 -0.195312 -0.365268 0.487014 0.000000 -0.873379
-0.682335 -0.320312 -0.380488 -0.437635 -0.865383 -0.244026
-0.702805 -0.289062 -0.391902 -0.765435 -0.481521 -0.426832
-0.664756 -0.250000 -0.460136 -0.599841 -0.586352 -0.544359
-0.732457 -0.148438 -0.354767 -0.592059 0.595599 -0.542833
-0.686799 -0.148438 -0.436647 -0.773003 0.595599 -0.218360
-0.755287 -0.156250 -0.313827 -0.878628 0.471267 -0.076479
-0.663970 -0.156250 -0.477587 -0.526902 0.471267 -0.707266
-0.760664 -0.226562 -0.272100 -0.702658 -0.243049 0.668691
-0.670007 -0.226562 -0.498844 -0.511887 -0.314707 -0.799310
-0.740854 -0.250000 -0.323669 -0.778405 -0.586352 -0.224158
-0.776543 -0.226562 -0.307790 -0.949034 -0.314707 -0.015320
-0.723275 -0.203125 -0.403317 -0.862423 0.157811 -0.480911
-0.700827 -0.242188 -0.202953 -0.928251 0.038667 0.369884
-0.541022 -0.242188 -0.489534 -0.173193 0.038667 -0.984100
-0.533413 -0.312500 -0.503181 -0.333476 0.148747 -0.930937
-0.708437 -0.312500 -0.189307 -0.967254 0.148747 0.205603
-0.610019 -0.312500 -0.044976 -0.557421 0.353008 0.751427
-0.358897 -0.312500 -0.495317 0.346233 0.353008 -0.869167
-0.598604 -0.250000 -0.065446 -0.563555 0.343516 0.751244
-0.370311 -0.250000 -0.474847 0.342875 0.343516 -0.874294
-0.680230 -0.742188 -0.271973 -0.665761 -0.527268 -0.527940
-0.588913 -0.742188 -0.435734 -0.799066 -0.527268 -0.288858
-0.627748 -0.773438 -0.350049 -0.238624 -0.961943 -0.133061
-0.666583 -0.820312 -0.264363 -0.364238 0.042756 -0.930296
-0.575266 -0.820312 -0.428124 -0.982879 0.042756 0.179083
-0.623284 -0.867188 -0.293889 -0.411084 0.579821 -0.703391
-0.577625 -0.867188 -0.375769 -0.814478 0.579821 0.019959
-0.600455 -0.890625 -0.334829 -0.819269 -0.346507 -0.456832
-0.600455 -0.875000 -0.334829 -0.724296 0.558763 -0.403882
-0.552691 -0.859375 -0.308195 -0.738731 0.533403 -0.411939
-0.529862 -0.851562 -0.349135 -0.867916 0.474960 -0.145207
-0.605173 -0.812500 -0.230120 -0.309305 0.115452 -0.943907
-0.575520 -0.851562 -0.267255 -0.579730 0.474960 -0.662008
-0.513856 -0.812500 -0.393880 -0.965575 0.115452 0.232978
-0.625643 -0.750000 -0.241534 -0.172369 -0.704123 -0.688803
-0.534326 -0.750000 -0.405295 -0.676595 -0.704123 0.215400
-0.573161 -0.781250 -0.319609 -0.624622 -0.698935 -0.348277
-0.766828 0.156250 -0.212922 -0.866268 -0.069979 -0.494613
-0.766042 0.218750 -0.230374 -0.936247 -0.084231 -0.341075
-0.584194 0.156250 -0.540443 -0.876095 -0.069979 -0.476974
-0.598628 0.218750 -0.530601 -0.782250 -0.084231 -0.617176
-0.769847 0.296875 -0.223550 -0.976165 -0.060152 -0.208380
-0.594823 0.296875 -0.537425 -0.690359 -0.060152 -0.720939
-0.785066 0.375000 -0.196257 -0.943022 -0.102878 -0.316355
-0.579603 0.375000 -0.564718 -0.764794 -0.102878 -0.635975
-0.571993 0.109375 -0.578365 -0.867031 -0.219794 -0.447127
-0.830852 0.062500 -0.033942 -0.932646 -0.186316 -0.308847
-0.792676 0.109375 -0.182610 -0.836116 -0.219794 -0.502579
-0.465584 0.062500 -0.688984 -0.752983 -0.186316 -0.631092
-0.859845 0.101562 0.066176 -0.978454 -0.035615 -0.203253
-0.395651 0.101562 -0.766273 -0.687216 -0.035615 -0.725578
-0.875192 0.195312 0.173904 -0.973266 -0.102023 -0.205725
-0.312071 0.195312 -0.835952 -0.686575 -0.102023 -0.719840
-0.885820 0.289062 0.176922 -0.944334 -0.060762 -0.323252
-0.315089 0.289062 -0.846580 -0.771355 -0.060762 -0.633473
-0.333327 0.351562 -0.829915 -0.691305 0.004639 -0.722526
-0.881229 0.351562 0.152647 -0.978027 0.004639 -0.208319
-0.470048 0.398438 -0.745143 -0.819605 -0.127171 -0.558611
-0.825474 0.429688 -0.075669 -0.949492 0.103183 -0.296274
-0.880975 0.398438 -0.008222 -0.906003 -0.127171 -0.403638
-0.498255 0.429688 -0.662477 -0.751122 0.103183 -0.651997
-0.808682 0.421875 -0.137865 -0.927976 0.064974 -0.366863
-0.542341 0.421875 -0.615500 -0.799860 0.064974 -0.596606
-0.776011 0.359375 -0.164372 -0.918516 -0.394910 0.018433
-0.805664 0.398438 -0.127237 -0.912381 -0.268319 -0.309061
-0.547719 0.359375 -0.573773 -0.467086 -0.394910 -0.791101
-0.531713 0.398438 -0.618518 -0.742485 -0.268319 -0.613727
-0.818651 0.406250 -0.071864 -0.878414 -0.314188 -0.360057
-0.491432 0.406250 -0.658672 -0.768029 -0.314188 -0.558031
-0.856700 0.390625 -0.003631 -0.250008 -0.855617 -0.453200
-0.453383 0.390625 -0.726905 -0.516953 -0.855617 0.025483
-0.852363 0.335938 0.132964 -0.629536 -0.582629 -0.513993
-0.334900 0.335938 -0.795012 -0.768151 -0.582629 -0.265358
-0.856954 0.281250 0.157238 -0.579821 -0.107761 -0.807550
-0.316662 0.281250 -0.811677 -0.991791 -0.107761 -0.068789
-0.853149 0.210938 0.150415 -0.747063 0.191351 -0.636586
-0.320467 0.210938 -0.804854 -0.934233 0.191351 -0.300943
-0.838589 0.117188 0.060139 -0.596454 0.609790 -0.521867
-0.389614 0.117188 -0.745016 -0.757469 0.609790 -0.233100
-0.817205 0.085938 -0.026333 -0.783197 0.558672 -0.272866
-0.451937 0.085938 -0.681374 -0.643788 0.558672 -0.522843
-0.779816 0.125000 -0.157549 -0.811090 0.583300 0.042634
-0.543914 0.125000 -0.580597 -0.390027 0.583300 -0.712424
-0.753968 0.171875 -0.187861 -0.912778 0.298471 0.278817
-0.556115 0.171875 -0.542675 -0.242561 0.298471 -0.923063
-0.756987 0.296875 -0.198489 -0.890378 -0.203192 0.407270
-0.566743 0.296875 -0.539657 -0.121494 -0.203192 -0.971557
-0.750163 0.226562 -0.194684 -0.912412 0.010987 0.409040
-0.559920 0.226562 -0.535852 -0.131596 0.010987 -0.991241
-0.585489 0.460938 -0.201253 0.037996 0.862453 -0.504685
-0.525398 0.406250 -0.292975 -0.446822 0.859188 -0.249153
-0.478953 0.460938 -0.392307 -0.409345 0.862453 0.297617
-0.634166 0.664062 -0.130001 0.857845 0.509445 -0.067385
-0.443923 0.664062 -0.471169 0.393567 0.509445 0.765191
-0.485395 0.757812 -0.637416 -0.040254 0.956999 -0.287240
-0.354965 0.687500 -0.582574 0.716483 0.646138 0.262917
-0.682184 0.687500 0.004233 0.600269 0.646138 0.471297
-0.248555 0.554688 -0.693194 0.484329 0.874813 0.010498
-0.720360 0.554688 0.152901 0.263497 0.874813 0.406507
-0.098847 0.453125 -0.833338 0.359691 0.912442 -0.195044
-0.790675 0.406250 0.471494 0.029572 0.581378 0.813074
-0.760895 0.453125 0.353924 0.023103 0.912442 0.408521
-0.014480 0.406250 -0.920469 0.707266 0.581378 -0.402173
0.014386 0.148438 -0.940153 0.554338 -0.400922 -0.729331
0.049162 0.164062 -0.858145 0.629749 -0.306192 -0.713858
-0.654613 0.000000 0.323739 -0.218513 -0.837153 0.501389
-0.704203 0.164062 0.492877 -0.276284 -0.306192 0.910977
-0.068662 0.000000 -0.727056 0.311686 -0.837153 -0.449446
-0.622474 -0.093750 0.153815 -0.075442 -0.863674 0.498337
-0.196328 -0.093750 -0.610400 0.384289 -0.863674 -0.326121
-0.245641 -0.484375 -0.136975 0.556078 -0.771081 0.310068
-0.374752 -0.539062 -0.065851 0.657918 -0.314737 0.684133
-0.279757 -0.570312 -0.156000 0.853267 -0.213294 0.475814
-0.252996 -0.539062 -0.284198 0.927824 -0.314737 0.200110
-0.137658 -0.414062 -0.282498 0.579058 -0.668691 -0.466353
-0.389185 -0.757812 -0.056009 0.779443 -0.150975 0.607959
-0.300227 -0.804688 -0.167415 0.833857 -0.297342 0.464980
-0.252210 -0.757812 -0.301649 0.926908 -0.150975 0.343547
-0.462010 -0.945312 -0.069783 0.507004 -0.783166 0.359966
-0.402578 -0.976562 -0.224488 0.411878 -0.881802 0.229682
-0.302205 -0.945312 -0.356363 0.572710 -0.783166 0.242103
-0.507796 -0.914062 0.092532 0.325297 -0.476211 0.816919
-0.188186 -0.914062 -0.480629 0.865963 -0.476211 -0.152623
-0.475124 -0.710938 0.066025 0.378948 0.083468 0.921628
-0.193564 -0.710938 -0.438903 0.983215 0.083468 -0.162023
-0.462923 -0.500000 0.028103 0.166784 -0.010498 0.985931
-0.219411 -0.500000 -0.408591 0.926420 -0.010498 -0.376293
-0.312683 -0.414062 0.031376 -0.092380 -0.668691 0.737754
-0.468960 -0.351562 0.006847 -0.119663 0.257729 0.958739
-0.240668 -0.351562 -0.402554 0.752708 0.257729 -0.605731
-0.481821 -0.281250 -0.018214 -0.530381 -0.195837 0.824793
-0.268748 -0.281250 -0.400322 0.422895 -0.195837 -0.884732
-0.306669 -0.226562 -0.412523 0.053346 -0.157720 -0.986023
-0.535621 -0.171875 -0.066105 -0.589435 -0.571459 0.570910
-0.337768 -0.171875 -0.420919 0.175878 -0.571459 -0.801538
-0.250915 -0.140625 -0.640839 0.177007 -0.937132 -0.300699
0.416375 0.054688 0.616818 0.499557 -0.358348 0.788659
0.586808 -0.195312 0.327219 0.631092 -0.691275 0.351909
0.723275 0.070312 0.403317 0.831782 -0.304941 0.463820
0.743594 0.054688 0.030010 0.933500 -0.358348 0.010468
0.638226 -0.148438 -0.037691 0.732719 -0.653615 -0.189398
0.303397 -0.148438 0.562764 0.223975 -0.653615 0.722892
0.307051 -0.382812 0.171219 0.293924 -0.941649 0.163884
0.376579 -0.312500 -0.129921 0.424512 -0.837581 -0.343822
-0.246022 -0.390625 0.104328 -0.289376 -0.819666 0.494308
-0.163760 -0.460938 -0.091317 0.160070 -0.983032 0.089267
-0.040559 -0.390625 -0.264133 0.268410 -0.819666 -0.506027
-0.419068 -0.046875 0.607151 -0.408002 -0.689810 0.598041
-0.462495 0.234375 0.717111 -0.534806 -0.160466 0.829585
0.296248 -0.046875 -0.675639 0.294320 -0.689810 -0.661458
0.366968 0.234375 -0.770379 0.424635 -0.160466 -0.891018
0.389614 0.437500 0.745016 0.523545 0.176305 0.833522
0.743745 0.562500 0.414731 0.813105 0.365032 0.453413
0.838589 0.437500 -0.060139 0.984283 0.176305 0.007263
-0.425383 0.851562 0.281608 -0.676687 0.724418 0.131260
0.068233 0.984375 0.038049 -0.019715 0.999725 -0.010987
-0.252464 0.898438 -0.140780 -0.486312 0.830622 -0.271157
0.015982 0.851562 -0.509900 -0.243995 0.724418 -0.644673
0.282093 0.929688 -0.361510 0.166906 0.909635 -0.380383
0.113661 0.867188 0.582193 0.182226 0.815271 0.549608
0.477634 0.898438 0.266341 0.481552 0.834223 0.268532
0.555027 0.867188 -0.209315 0.563341 0.815271 -0.133824
-0.647257 0.406250 0.470962 -0.444411 0.631062 0.635762
-0.553835 0.453125 0.415716 -0.587664 0.788537 0.181127
0.060449 0.406250 -0.798181 0.307260 0.631062 -0.712241
0.062554 0.453125 -0.689667 -0.154790 0.788537 -0.595141
-0.497271 0.562500 0.635104 -0.734947 0.516434 0.439467
-0.359763 0.703125 0.532880 -0.604480 0.671865 0.427961
0.278924 0.562500 -0.756859 -0.012421 0.516434 -0.856227
0.264236 0.703125 -0.586149 0.046358 0.671865 -0.739189
-0.285747 0.617188 0.753055 -0.401044 0.528764 0.748009
-0.141416 0.750000 0.654636 -0.269662 0.731376 0.626362
0.490447 0.617188 -0.638908 0.425520 0.528764 -0.734336
0.482583 0.750000 -0.464393 0.391125 0.731376 -0.558641
-0.074223 0.539062 0.871006 -0.097507 0.314554 0.944212
0.076931 0.679688 0.776392 0.187597 0.569567 0.800226
0.701971 0.539062 -0.520957 0.751976 0.314554 -0.579241
0.700931 0.679688 -0.342637 0.779351 0.569567 -0.260994
0.211166 0.328125 0.824410 0.381634 -0.060457 0.922300
0.005425 0.265625 0.888584 0.319834 -0.045289 0.946379
0.812336 0.328125 -0.253679 0.985229 -0.060457 -0.160100
-0.159273 0.929688 0.429998 -0.235847 0.909635 0.341899
-0.599772 0.523438 0.193309 -0.447401 0.883206 0.140538
-0.150797 0.523438 -0.611846 -0.115604 0.883206 -0.454482
-0.498104 0.570312 -0.277756 -0.741020 0.529252 -0.413190
-0.377596 0.320312 0.773398 -0.424818 -0.033296 0.904630
0.459476 0.320312 -0.727739 0.546281 -0.033296 -0.836909
-0.222105 0.328125 0.815378 -0.750328 0.224219 0.621845
0.576919 0.328125 -0.617525 0.134617 0.224219 -0.965178
0.087409 -0.312500 0.388653 -0.069369 -0.837581 0.541856
-0.327497 -0.171875 0.282521 -0.406659 -0.802698 0.436201
0.068210 -0.171875 -0.427107 0.157323 -0.802698 -0.575243
0.393499 -0.195312 -0.272553 0.380291 -0.817286 -0.432875
-0.145880 -0.125000 0.598477 -0.153111 -0.949950 0.272164
0.432461 -0.125000 -0.438672 0.151067 -0.949950 -0.273324
-0.512133 -0.226562 -0.044062 -0.810785 -0.157720 0.563646
0.063284 -0.007812 0.768783 0.477584 -0.602924 0.639027
0.687284 -0.007812 -0.350246 0.794671 -0.602924 0.070406
0.713537 0.023438 -0.156706 0.853145 -0.505112 -0.130192
-0.025038 -0.195312 0.478016 -0.168371 -0.817286 0.551073
0.241732 0.023438 0.689389 0.337657 -0.505112 0.794244
-0.229055 0.406250 0.892008 -0.366985 0.768303 -0.524369
-0.242170 0.414062 1.027816 -0.993896 -0.078768 0.076846
-0.225505 0.476562 1.046054 -0.435926 0.872250 -0.221534
0.638456 0.406250 -0.663715 -0.638997 0.768303 -0.036561
0.747098 0.414062 -0.746255 -0.457015 -0.078768 -0.885922
0.640029 0.359375 -0.698619 -0.560747 -0.038331 -0.827082
-0.237174 0.437500 1.227393 -0.979644 -0.092318 -0.178198
-0.232709 0.507812 1.283552 -0.473952 0.862972 0.174871
0.919508 0.437500 -0.846905 -0.666524 -0.092318 -0.739738
0.771373 0.476562 -0.741664 -0.417615 0.872250 -0.254402
0.969631 0.507812 -0.872626 -0.100345 0.862972 -0.495132
-0.289783 0.320312 1.385903 -0.907163 0.167791 0.385815
1.026704 0.320312 -0.974976 -0.148564 0.167791 -0.974548
0.971204 0.289062 -0.907529 -0.931303 -0.123875 -0.342448
-0.261576 0.289062 1.303236 -0.780847 -0.123875 -0.612262
-0.248715 0.054688 1.328297 -0.832087 -0.476821 0.283212
0.999284 0.054688 -0.909761 -0.196417 -0.476821 -0.856746
0.944570 0.078125 -0.859765 -0.849361 0.310831 -0.426527
-0.234942 0.078125 1.255472 -0.809290 0.310831 -0.498367
-0.219468 -0.101562 1.067310 -0.568346 -0.780999 0.258858
0.792629 -0.101562 -0.747701 -0.078494 -0.780999 -0.619556
0.768354 -0.039062 -0.752292 -0.427107 0.295267 -0.854610
-0.287320 -0.070312 0.787958 -0.937681 0.315653 -0.145085
-0.267509 -0.140625 0.736389 -0.688559 -0.634999 -0.350139
0.519314 -0.070312 -0.658592 -0.616291 0.315653 -0.721458
0.485856 -0.140625 -0.614634 -0.659780 -0.634999 -0.401746
-0.236133 -0.039062 1.049072 -0.951537 0.295267 0.085818
-0.245720 -0.023438 0.873770 -0.504685 0.858028 -0.094913
0.614181 -0.023438 -0.668307 -0.346019 0.858028 -0.379467
-0.185351 0.000000 1.086334 -0.114353 0.953825 -0.277657
0.826746 0.000000 -0.728676 -0.296304 0.953825 0.048647
-0.212239 0.250000 1.294967 0.355022 -0.099582 -0.929533
0.990101 0.250000 -0.861211 -0.604144 -0.099582 0.790582
0.967272 0.093750 -0.820271 -0.354289 0.647084 0.675069
-0.188624 0.359375 1.236575 -0.494400 -0.745506 -0.446944
0.952839 0.359375 -0.810429 -0.640095 -0.745506 -0.185675
-0.184565 0.343750 1.068883 -0.708853 -0.660878 0.246406
0.812313 0.343750 -0.718834 -0.162938 -0.660878 -0.732566
-0.207926 0.304688 0.966406 -0.745628 -0.555773 0.367565
0.712854 0.304688 -0.684845 -0.079196 -0.555773 -0.827540
-0.292443 0.000000 0.668815 -0.287942 -0.493118 0.820887
0.415264 0.000000 -0.600327 0.547014 -0.493118 -0.676443
0.500162 -0.023438 -0.544041 -0.231208 0.114414 -0.966124
-0.199935 -0.023438 0.711455 -0.943449 0.114414 0.311075
-0.257922 0.359375 0.911692 -0.998352 -0.038331 -0.042329
-0.156890 -0.015625 0.842799 -0.828303 0.513138 0.224891
0.634524 -0.015625 -0.576458 -0.243995 0.513138 -0.822871
-0.186288 0.039062 0.719065 -0.686239 -0.118839 0.717582
-0.172109 0.015625 0.870092 -0.855342 -0.176244 0.487136
0.513809 0.039062 -0.536431 0.249763 -0.118839 -0.960967
-0.130256 0.093750 0.795035 -0.871242 0.041353 0.489059
-0.160695 0.085938 0.849622 -0.762688 0.634388 0.125858
0.649744 0.015625 -0.603751 -0.035127 -0.176244 -0.983703
0.607890 0.093750 -0.528694 -0.041871 0.041353 -0.998260
0.638329 0.085938 -0.583281 -0.293771 0.634388 -0.714988
-0.203867 0.203125 0.798713 -0.676199 -0.435377 0.594287
-0.168304 0.171875 0.863269 -0.661397 -0.623371 0.417035
0.572328 0.203125 -0.593250 0.150121 -0.435377 -0.887631
-0.201762 0.242188 0.907227 -0.766839 -0.498917 0.403699
-0.226696 0.289062 0.839653 -0.967956 -0.224128 -0.112980
0.665750 0.242188 -0.648496 -0.059603 -0.498917 -0.864589
0.645939 0.171875 -0.596928 0.007111 -0.623371 -0.781854
0.595157 0.289062 -0.634190 -0.604907 -0.224128 -0.764092
-0.153998 0.234375 0.933862 -0.834712 -0.468490 0.289407
-0.163967 0.289062 0.999863 -0.870052 -0.420576 0.256996
0.713513 0.234375 -0.621862 -0.192511 -0.468490 -0.862209
0.764422 0.289062 -0.665034 -0.238655 -0.420576 -0.875271
0.690684 0.171875 -0.580922 -0.336680 -0.418928 -0.843287
-0.093120 0.093750 0.824688 -0.888852 0.266518 0.372631
-0.131169 0.171875 0.892922 -0.894345 -0.418928 0.156804
0.652635 0.093750 -0.512688 -0.150151 0.266518 -0.952055
0.683074 0.078125 -0.567275 -0.487442 0.379864 -0.786157
-0.123559 0.078125 0.879275 -0.925016 0.379864 -0.001465
0.694489 0.015625 -0.587745 -0.627003 0.370922 -0.685018
-0.115950 -0.015625 0.865628 -0.924100 0.310129 0.223182
-0.134974 0.015625 0.899745 -0.912320 0.370922 -0.173345
0.675464 -0.015625 -0.553628 -0.295846 0.310129 -0.903470
-0.197957 -0.015625 0.900404 -0.268227 0.944914 -0.187506
0.661945 -0.015625 -0.641673 -0.300516 0.944914 -0.129643
-0.144411 0.328125 1.109164 -0.944273 -0.329142 0.002136
0.867686 0.328125 -0.705847 -0.494461 -0.329142 -0.804437
-0.155293 0.343750 1.273051 -0.574694 -0.533067 -0.620899
1.001389 0.343750 -0.801247 -0.830287 -0.533067 -0.162542
-0.182714 0.242188 1.338266 -0.207404 -0.033784 -0.977660
1.042456 0.242188 -0.858852 -0.940733 -0.033784 0.337413
-0.166708 0.085938 1.293521 -0.275246 0.499893 -0.821162
-0.189410 0.093750 1.254027 0.388073 0.647084 -0.656240
1.012803 0.085938 -0.821717 -0.843257 0.499893 0.197424
-0.141392 0.000000 1.119792 -0.649434 0.703848 -0.287698
0.878314 0.000000 -0.708865 -0.586138 0.703848 -0.401257
-0.147175 0.109375 0.937666 -0.950926 0.038942 -0.306864
0.720336 0.109375 -0.618057 -0.760888 0.038942 -0.647694
0.749989 0.062500 -0.655192 -0.590472 0.127262 -0.796930
-0.163181 0.062500 0.982411 -0.988342 0.127262 -0.083438
-0.160949 0.171875 1.010491 -0.985992 -0.004578 -0.166601
0.775050 0.171875 -0.668052 -0.659993 -0.004578 -0.751244
0.807721 0.125000 -0.694559 -0.561296 -0.093692 -0.822260
-0.179314 0.187500 1.107591 -0.977233 -0.103732 -0.184973
-0.167113 0.234375 1.069669 -0.980651 0.106784 -0.164037
0.848002 0.187500 -0.734713 -0.671010 -0.103732 -0.734123
0.822155 0.234375 -0.704401 -0.654988 0.106784 -0.748009
-0.187710 0.273438 1.138689 -0.930174 0.315806 -0.187048
0.870045 0.273438 -0.758202 -0.648061 0.315806 -0.693014
0.881460 0.210938 -0.778672 -0.617908 -0.068514 -0.783227
-0.199125 0.210938 1.159159 -0.991089 -0.068514 -0.113987
-0.097712 -0.125000 0.848963 0.512925 -0.840846 0.172826
-0.076177 -0.085938 1.147213 0.652608 -0.679586 0.334971
0.670873 -0.125000 -0.529353 0.416608 -0.840846 0.345500
0.935919 -0.085938 -0.667798 0.627979 -0.679586 0.379131
-0.175231 0.054688 1.405054 0.199469 -0.504318 0.840114
1.103207 0.054688 -0.887591 0.819575 -0.504318 -0.271859
-0.229159 0.296875 1.437598 -0.129185 0.091830 0.987335
1.102547 0.296875 -0.950574 0.772027 0.091830 -0.628864
-0.131146 0.468750 1.358077 0.513962 0.597766 0.615223
1.086414 0.468750 -0.825394 0.793512 0.597766 0.113865
-0.075391 0.437500 1.129761 0.834498 0.550890 -0.008942
0.921486 0.437500 -0.657956 0.431013 0.550890 0.714652
-0.084192 0.382812 0.937007 0.740501 0.584643 -0.331370
0.752880 0.382812 -0.564129 0.107273 0.584643 0.804132
0.758790 0.265625 -0.462438 0.973205 -0.045289 -0.225318
-0.595609 0.414062 -0.519973 -0.594256 -0.283608 -0.752556
-0.166327 0.125000 1.052218 -0.994568 -0.093692 -0.045289
3 0 1 2
3 3 4 5
3 2 6 7
3 8 5 9
3 1 10 6
3 11 3 8
3 12 13 1
3 14 15 3
3 16 17 13
3 18 19 14
3 13 20 10
3 21 14 11
3 22 20 17
3 23 21 24
3 25 17 26
3 27 18 23
3 25 28 22
3 29 27 23
3 28 30 22
3 29 24 31
3 32 33 28
3 34 31 35
3 36 28 37
3 38 29 34
3 39 32 36
3 40 34 41
3 42 43 32
3 41 35 44
3 2 45 42
3 5 44 9
3 0 42 39
3 4 41 5
3 39 46 0
3 40 47 48
3 36 49 39
3 38 48 50
3 37 51 36
3 52 50 53
3 25 54 37
3 27 53 55
3 25 56 57
3 58 27 55
3 26 59 56
3 60 61 58
3 16 62 59
3 63 19 60
3 12 46 62
3 47 15 63
3 64 62 46
3 47 63 65
3 59 62 64
3 65 63 60
3 64 56 59
3 60 58 65
3 64 57 56
3 58 55 65
3 64 54 57
3 55 53 65
3 64 51 54
3 53 50 65
3 64 49 51
3 50 48 65
3 64 46 49
3 48 47 65
3 66 67 68
3 69 67 70
3 71 68 72
3 73 74 69
3 75 71 72
3 73 76 77
3 78 79 75
3 80 81 76
3 82 83 78
3 84 85 81
3 86 87 88
3 89 90 91
3 92 87 93
3 94 89 95
3 92 96 97
3 98 94 95
3 99 96 100
3 101 98 102
3 103 104 99
3 105 102 106
3 107 108 103
3 109 106 110
3 107 111 112
3 113 109 110
3 114 111 115
3 116 113 117
3 118 119 114
3 120 117 121
3 122 123 118
3 122 121 124
3 125 123 126
3 127 121 117
3 125 111 119
3 113 127 117
3 112 128 129
3 110 130 113
3 108 129 131
3 106 132 110
3 104 131 133
3 102 134 106
3 96 133 135
3 98 136 102
3 97 135 137
3 95 138 98
3 87 137 139
3 89 140 95
3 141 87 139
3 89 142 143
3 141 144 88
3 144 142 91
3 123 145 126
3 121 146 124
3 145 147 148
3 147 146 149
3 150 147 144
3 151 147 149
3 152 70 66
3 70 153 69
3 154 66 71
3 69 155 73
3 154 79 156
3 155 80 73
3 157 158 83
3 159 160 84
3 156 83 158
3 84 161 159
3 162 163 164
3 162 165 166
3 163 167 158
3 165 167 166
3 156 167 168
3 161 167 159
3 169 170 164
3 171 172 173
3 174 169 175
3 176 172 177
3 178 175 179
3 180 181 176
3 182 179 183
3 182 179 180
3 164 184 162
3 173 184 171
3 170 185 184
3 171 185 186
3 182 187 178
3 188 182 180
3 178 189 174
3 190 180 176
3 189 191 174
3 190 177 192
3 191 193 170
3 186 177 171
3 194 187 195
3 192 188 190
3 195 193 194
3 186 195 192
3 179 88 144
3 91 179 144
3 175 196 88
3 197 181 91
3 164 196 169
3 173 197 198
3 163 199 164
3 165 198 160
3 200 157 82
3 201 160 198
3 202 199 200
3 203 198 197
3 86 196 202
3 197 90 203
3 168 204 156
3 168 205 206
3 154 204 207
3 205 155 208
3 152 207 209
3 208 153 210
3 211 209 212
3 210 211 212
3 209 213 212
3 210 213 214
3 209 215 216
3 217 210 214
3 207 218 215
3 219 208 217
3 206 218 204
3 206 219 220
3 220 216 218
3 214 220 219
3 218 216 215
3 217 214 219
3 148 221 222
3 223 149 224
3 145 222 225
3 224 146 226
3 145 227 126
3 146 228 226
3 141 221 150
3 142 223 229
3 141 230 231
3 232 142 229
3 139 233 230
3 234 143 232
3 137 235 233
3 236 140 234
3 135 237 235
3 238 138 236
3 131 237 133
3 134 238 239
3 129 240 131
3 132 239 241
3 129 242 243
3 244 132 241
3 128 245 242
3 246 130 244
3 125 227 245
3 228 127 246
3 245 247 248
3 249 246 250
3 242 248 251
3 250 244 252
3 242 253 243
3 244 254 252
3 243 255 240
3 241 256 254
3 237 255 257
3 256 238 258
3 237 259 235
3 238 260 258
3 233 259 261
3 260 234 262
3 233 263 230
3 234 264 262
3 230 265 231
3 232 266 264
3 221 265 267
3 266 223 268
3 227 269 247
3 270 228 249
3 225 271 269
3 272 226 270
3 222 267 271
3 268 224 272
3 122 273 274
3 275 122 274
3 118 276 273
3 277 120 275
3 115 276 114
3 278 277 279
3 107 280 115
3 109 279 281
3 103 282 107
3 105 281 283
3 103 284 285
3 286 105 283
3 100 284 99
3 287 286 288
3 100 289 290
3 291 287 288
3 92 292 289
3 293 94 291
3 294 295 296
3 294 297 298
3 296 299 300
3 296 301 297
3 300 302 303
3 300 304 301
3 68 303 302
3 303 74 304
3 72 302 305
3 304 77 306
3 75 305 307
3 306 76 308
3 78 307 309
3 308 81 310
3 307 295 309
3 297 308 310
3 305 299 307
3 306 301 304
3 309 311 312
3 310 298 297
3 82 309 312
3 310 85 313
3 314 202 200
3 315 203 316
3 312 200 82
3 313 201 315
3 202 317 86
3 203 318 316
3 317 93 86
3 318 319 293
3 320 321 322
3 323 321 324
3 325 326 321
3 324 326 327
3 326 328 329
3 330 326 329
3 329 311 294
3 298 329 294
3 311 314 312
3 298 315 330
3 290 331 332
3 333 288 334
3 335 322 336
3 337 322 323
3 338 339 340
3 341 339 342
3 339 343 344
3 345 339 344
3 344 335 336
3 337 344 336
3 285 346 347
3 348 283 349
3 347 350 351
3 352 349 353
3 351 354 355
3 356 353 357
3 355 358 359
3 360 357 361
3 362 358 363
3 364 360 361
3 335 359 362
3 361 337 364
3 343 355 359
3 357 345 361
3 365 351 355
3 353 342 357
3 338 347 351
3 349 341 353
3 285 366 282
3 283 367 349
3 366 340 368
3 367 340 341
3 276 282 273
3 277 281 279
3 273 366 368
3 367 275 368
3 274 273 368
3 368 275 274
3 290 346 284
3 288 348 334
3 332 350 346
3 352 334 348
3 369 354 350
3 356 370 352
3 358 371 363
3 360 372 356
3 373 374 328
3 327 375 376
3 374 377 331
3 375 378 376
3 289 374 331
3 375 291 333
3 292 314 374
3 315 293 375
3 314 328 374
3 375 330 315
3 292 317 379
3 316 318 293
3 380 362 363
3 381 364 382
3 362 320 335
3 364 323 382
3 383 380 377
3 376 381 382
3 325 383 373
3 324 376 382
3 320 384 325
3 324 382 323
3 385 386 387
3 388 389 390
3 387 391 392
3 393 394 395
3 391 396 392
3 393 397 398
3 399 400 396
3 398 401 402
3 403 404 400
3 402 405 406
3 404 407 408
3 409 405 410
3 411 412 407
3 413 406 409
3 403 414 411
3 415 402 406
3 416 403 399
3 417 402 418
3 419 399 391
3 420 398 417
3 421 391 386
3 422 393 420
3 386 423 421
3 424 389 422
3 377 425 331
3 378 426 427
3 408 428 377
3 410 427 409
3 332 425 369
3 426 334 370
3 371 429 385
3 390 372 388
3 407 430 428
3 431 409 427
3 432 430 433
3 434 431 427
3 435 433 436
3 437 438 439
3 440 435 441
3 442 438 434
3 440 443 444
3 442 445 446
3 444 423 429
3 447 424 445
3 440 371 369
3 442 372 447
3 425 440 369
3 426 442 434
3 425 428 432
3 434 427 426
3 423 448 449
3 450 424 451
3 441 448 443
3 446 450 452
3 441 453 454
3 455 446 452
3 436 453 435
3 439 455 456
3 433 457 436
3 437 456 458
3 433 459 460
3 461 437 458
3 430 462 459
3 463 431 461
3 421 449 464
3 451 422 465
3 419 464 466
3 465 420 467
3 416 466 468
3 467 417 469
3 416 470 471
3 417 472 469
3 471 473 414
3 418 474 472
3 414 462 412
3 415 463 474
3 460 475 457
3 458 476 477
3 478 479 475
3 477 480 481
3 479 482 483
3 484 480 485
3 482 486 483
3 484 487 488
3 464 483 486
3 485 465 487
3 479 449 448
3 480 451 485
3 454 479 448
3 452 480 476
3 457 454 453
3 452 456 455
3 462 460 459
3 463 458 477
3 473 478 462
3 477 474 463
3 482 473 470
3 484 474 481
3 489 470 468
3 488 472 484
3 466 489 468
3 488 467 469
3 464 486 466
3 467 487 465
3 404 490 491
3 492 405 493
3 400 491 494
3 493 401 495
3 400 496 396
3 401 497 495
3 396 498 392
3 397 499 497
3 392 500 387
3 395 501 499
3 387 502 385
3 394 503 501
3 491 502 500
3 493 503 492
3 500 494 491
3 495 501 493
3 498 496 494
3 495 497 499
3 371 502 363
3 372 503 388
3 363 490 380
3 492 504 381
3 377 490 408
3 492 378 410
3 0 12 1
3 3 15 4
3 2 1 6
3 8 3 5
3 1 13 10
3 11 14 3
3 12 16 13
3 14 19 15
3 16 26 17
3 18 61 19
3 13 17 20
3 21 18 14
3 22 30 20
3 23 18 21
3 25 22 17
3 27 61 18
3 25 37 28
3 29 52 27
3 28 33 30
3 29 23 24
3 32 43 33
3 34 29 31
3 36 32 28
3 38 52 29
3 39 42 32
3 40 38 34
3 42 45 43
3 41 34 35
3 2 7 45
3 5 41 44
3 0 2 42
3 4 40 41
3 39 49 46
3 40 4 47
3 36 51 49
3 38 40 48
3 37 54 51
3 52 38 50
3 25 57 54
3 27 52 53
3 25 26 56
3 58 61 27
3 26 16 59
3 60 19 61
3 16 12 62
3 63 15 19
3 12 0 46
3 47 4 15
3 66 70 67
3 69 74 67
3 71 66 68
3 73 77 74
3 75 79 71
3 73 80 76
3 78 83 79
3 80 84 81
3 82 157 83
3 84 160 85
3 86 93 87
3 89 319 90
3 92 97 87
3 94 319 89
3 92 100 96
3 98 287 94
3 99 104 96
3 101 287 98
3 103 108 104
3 105 101 102
3 107 112 108
3 109 105 106
3 107 115 111
3 113 278 109
3 114 119 111
3 116 278 113
3 118 123 119
3 120 116 117
3 122 124 123
3 122 120 121
3 125 119 123
3 127 505 121
3 125 128 111
3 113 130 127
3 112 111 128
3 110 132 130
3 108 112 129
3 106 134 132
3 104 108 131
3 102 136 134
3 96 104 133
3 98 138 136
3 97 96 135
3 95 140 138
3 87 97 137
3 89 143 140
3 141 88 87
3 89 91 142
3 141 150 144
3 144 151 142
3 123 124 145
3 121 505 146
3 145 124 147
3 147 124 146
3 150 148 147
3 151 144 147
3 152 211 70
3 70 211 153
3 154 152 66
3 69 153 155
3 154 71 79
3 155 161 80
3 157 163 158
3 159 165 160
3 156 79 83
3 84 80 161
3 162 166 163
3 162 173 165
3 163 166 167
3 165 159 167
3 156 158 167
3 161 168 167
3 169 191 170
3 171 177 172
3 174 191 169
3 176 181 172
3 178 174 175
3 180 179 181
3 182 178 179
3 164 170 184
3 173 162 184
3 170 193 185
3 171 184 185
3 182 195 187
3 188 195 182
3 178 187 189
3 190 188 180
3 189 194 191
3 190 176 177
3 191 194 193
3 186 192 177
3 194 189 187
3 192 195 188
3 195 185 193
3 186 185 195
3 179 175 88
3 91 181 179
3 175 169 196
3 197 172 181
3 164 199 196
3 173 172 197
3 163 157 199
3 165 173 198
3 200 199 157
3 201 85 160
3 202 196 199
3 203 201 198
3 86 88 196
3 197 91 90
3 168 206 204
3 168 161 205
3 154 156 204
3 205 161 155
3 152 154 207
3 208 155 153
3 211 152 209
3 210 153 211
3 209 216 213
3 210 212 213
3 209 207 215
3 217 208 210
3 207 204 218
3 219 205 208
3 206 220 218
3 206 205 219
3 220 213 216
3 214 213 220
3 148 150 221
3 223 151 149
3 145 148 222
3 224 149 146
3 145 225 227
3 146 505 228
3 141 231 221
3 142 151 223
3 141 139 230
3 232 143 142
3 139 137 233
3 234 140 143
3 137 135 235
3 236 138 140
3 135 133 237
3 238 136 138
3 131 240 237
3 134 136 238
3 129 243 240
3 132 134 239
3 129 128 242
3 244 130 132
3 128 125 245
3 246 127 130
3 125 126 227
3 228 505 127
3 245 227 247
3 249 228 246
3 242 245 248
3 250 246 244
3 242 251 253
3 244 241 254
3 243 253 255
3 241 239 256
3 237 240 255
3 256 239 238
3 237 257 259
3 238 236 260
3 233 235 259
3 260 236 234
3 233 261 263
3 234 232 264
3 230 263 265
3 232 229 266
3 221 231 265
3 266 229 223
3 227 225 269
3 270 226 228
3 225 222 271
3 272 224 226
3 222 221 267
3 268 223 224
3 122 118 273
3 275 120 122
3 118 114 276
3 277 116 120
3 115 280 276
3 278 116 277
3 107 282 280
3 109 278 279
3 103 285 282
3 105 109 281
3 103 99 284
3 286 101 105
3 100 290 284
3 287 101 286
3 100 92 289
3 291 94 287
3 92 93 292
3 293 319 94
3 294 311 295
3 294 296 297
3 296 295 299
3 296 300 301
3 300 299 302
3 300 303 304
3 68 67 303
3 303 67 74
3 72 68 302
3 304 74 77
3 75 72 305
3 306 77 76
3 78 75 307
3 308 76 81
3 307 299 295
3 297 301 308
3 305 302 299
3 306 308 301
3 309 295 311
3 310 313 298
3 82 78 309
3 310 81 85
3 314 379 202
3 315 201 203
3 312 314 200
3 313 85 201
3 202 379 317
3 203 90 318
3 317 292 93
3 318 90 319
3 320 325 321
3 323 322 321
3 325 373 326
3 324 321 326
3 326 373 328
3 330 327 326
3 329 328 311
3 298 330 329
3 311 328 314
3 298 313 315
3 290 289 331
3 333 291 288
3 335 320 322
3 337 336 322
3 338 365 339
3 341 340 339
3 339 365 343
3 345 342 339
3 344 343 335
3 337 345 344
3 285 284 346
3 348 286 283
3 347 346 350
3 352 348 349
3 351 350 354
3 356 352 353
3 355 354 358
3 360 356 357
3 362 359 358
3 364 504 360
3 335 343 359
3 361 345 337
3 343 365 355
3 357 342 345
3 365 338 351
3 353 341 342
3 338 366 347
3 349 367 341
3 285 347 366
3 283 281 367
3 366 338 340
3 367 368 340
3 276 280 282
3 277 275 281
3 273 282 366
3 367 281 275
3 290 332 346
3 288 286 348
3 332 369 350
3 352 370 334
3 369 371 354
3 356 372 370
3 358 354 371
3 360 504 372
3 373 383 374
3 327 330 375
3 374 383 377
3 375 333 378
3 289 292 374
3 375 293 291
3 292 379 314
3 315 316 293
3 380 384 362
3 381 504 364
3 362 384 320
3 364 337 323
3 383 384 380
3 376 378 381
3 325 384 383
3 324 327 376
3 385 429 386
3 388 394 389
3 387 386 391
3 393 389 394
3 391 399 396
3 393 395 397
3 399 403 400
3 398 397 401
3 403 411 404
3 402 401 405
3 404 411 407
3 409 406 405
3 411 414 412
3 413 415 406
3 403 471 414
3 415 418 402
3 416 471 403
3 417 398 402
3 419 416 399
3 420 393 398
3 421 419 391
3 422 389 393
3 386 429 423
3 424 390 389
3 377 428 425
3 378 333 426
3 408 407 428
3 410 378 427
3 332 331 425
3 426 333 334
3 371 444 429
3 390 447 372
3 407 412 430
3 431 413 409
3 432 428 430
3 434 437 431
3 435 432 433
3 437 434 438
3 440 432 435
3 442 446 438
3 440 441 443
3 442 447 445
3 444 443 423
3 447 390 424
3 440 444 371
3 442 370 372
3 425 432 440
3 426 370 442
3 423 443 448
3 450 445 424
3 441 454 448
3 446 445 450
3 441 435 453
3 455 438 446
3 436 457 453
3 439 438 455
3 433 460 457
3 437 439 456
3 433 430 459
3 461 431 437
3 430 412 462
3 463 413 431
3 421 423 449
3 451 424 422
3 419 421 464
3 465 422 420
3 416 419 466
3 467 420 417
3 416 468 470
3 417 418 472
3 471 470 473
3 418 415 474
3 414 473 462
3 415 413 463
3 460 478 475
3 458 456 476
3 478 506 479
3 477 476 480
3 479 506 482
3 484 481 480
3 482 489 486
3 484 485 487
3 464 449 483
3 485 451 465
3 479 483 449
3 480 450 451
3 454 475 479
3 452 450 480
3 457 475 454
3 452 476 456
3 462 478 460
3 463 461 458
3 473 506 478
3 477 481 474
3 482 506 473
3 484 472 474
3 489 482 470
3 488 469 472
3 466 486 489
3 488 487 467
3 404 408 490
3 492 410 405
3 400 404 491
3 493 405 401
3 400 494 496
3 401 397 497
3 396 496 498
3 397 395 499
3 392 498 500
3 395 394 501
3 387 500 502
3 394 388 503
3 491 490 502
3 493 501 503
3 500 498 494
3 495 499 501
3 371 385 502
3 372 504 503
3 363 502 490
3 492 503 504
3 377 380 490
3 492 381 378
